<?xml version="1.0" standalone="no"?>
<!DOCTYPE svg PUBLIC "-//W3C//DTD SVG 20010904//EN"
 "http://www.w3.org/TR/2001/REC-SVG-20010904/DTD/svg10.dtd">
<svg version="1.0" xmlns="http://www.w3.org/2000/svg"
 width="100.000000pt" height="100.000000pt" viewBox="0 0 100.000000 100.000000"
 preserveAspectRatio="xMidYMid meet">

<g transform="translate(0.000000,100.000000) scale(0.100000,-0.100000)"
fill="#000000" stroke="none">
<path d="M145 928 c-3 -7 -4 -204 -3 -438 l3 -425 270 -3 270 -2 88 88 87 88
-2 349 -3 350 -353 3 c-277 2 -354 0 -357 -10z m675 -348 l0 -319 -77 -3 -78
-3 -3 -77 -3 -78 -239 0 -240 0 0 400 0 400 320 0 320 0 0 -320z m-30 -363 c0
-2 -20 -23 -45 -47 l-45 -44 0 47 0 47 45 0 c25 0 45 -1 45 -3z"/>
</g>
</svg>
