<?xml version="1.0" standalone="no"?>
<!DOCTYPE svg PUBLIC "-//W3C//DTD SVG 20010904//EN"
 "http://www.w3.org/TR/2001/REC-SVG-20010904/DTD/svg10.dtd">
<svg version="1.0" xmlns="http://www.w3.org/2000/svg"
 width="96.000000pt" height="96.000000pt" viewBox="0 0 96.000000 96.000000"
 preserveAspectRatio="xMidYMid meet">

<g transform="translate(0.000000,96.000000) scale(0.100000,-0.100000)"
fill="#000000" stroke="none">
<path d="M171 853 c-65 -32 -93 -111 -66 -181 31 -76 113 -110 188 -78 l38 15
67 -64 67 -65 -67 -65 -67 -64 -35 14 c-48 20 -85 19 -124 -5 -81 -50 -95
-151 -29 -217 66 -66 166 -53 218 29 19 32 20 45 7 135 -2 16 50 71 245 253
136 128 246 237 244 243 -2 6 -8 12 -14 14 -6 2 -85 -66 -177 -152 l-166 -156
-71 62 c-57 51 -69 67 -63 84 3 11 9 40 11 65 11 106 -107 182 -206 133z m118
-47 c67 -35 65 -143 -4 -174 -51 -23 -107 -7 -131 39 -47 91 44 182 135 135z
m0 -480 c47 -25 63 -83 37 -135 -35 -66 -137 -66 -172 0 -47 91 44 182 135
135z"/>
<path d="M554 418 c-5 -7 32 -49 97 -110 161 -152 188 -173 202 -159 9 10 -18
41 -128 146 -77 74 -145 134 -152 135 -6 0 -15 -5 -19 -12z"/>
</g>
</svg>
