<?xml version="1.0" standalone="no"?>
<!DOCTYPE svg PUBLIC "-//W3C//DTD SVG 20010904//EN"
 "http://www.w3.org/TR/2001/REC-SVG-20010904/DTD/svg10.dtd">
<svg version="1.0" xmlns="http://www.w3.org/2000/svg"
 width="100.000000pt" height="100.000000pt" viewBox="0 0 100.000000 100.000000"
 preserveAspectRatio="xMidYMid meet">

<g transform="translate(0.000000,100.000000) scale(0.100000,-0.100000)"
fill="#000000" stroke="none">
<path d="M434 826 c-13 -10 -33 -13 -61 -9 -35 5 -45 2 -67 -20 -24 -24 -26
-32 -26 -119 0 -90 -1 -94 -29 -121 -65 -61 -65 -146 0 -266 74 -138 98 -151
279 -151 139 0 188 14 228 65 39 49 44 89 40 318 -3 219 -3 219 -28 239 -17
14 -35 18 -59 16 -26 -3 -39 1 -58 20 -21 21 -31 24 -66 19 -28 -4 -48 -1 -61
9 -11 8 -32 14 -46 14 -14 0 -35 -6 -46 -14z m74 -39 c6 -7 12 -33 14 -57 4
-59 31 -63 38 -6 10 82 71 74 80 -10 6 -56 31 -69 40 -20 6 37 33 55 58 40 15
-10 17 -34 20 -230 2 -204 1 -221 -18 -252 -39 -64 -68 -73 -220 -70 -165 4
-172 7 -235 132 -61 119 -58 188 7 222 27 14 27 16 30 121 3 88 6 108 21 117
26 17 51 -4 55 -48 3 -28 8 -36 23 -36 16 0 19 7 19 43 0 24 5 48 12 55 16 16
43 15 56 -1z"/>
</g>
</svg>
